{
  "accessors": [
    {
      "bufferView": 2,
      "componentType": 5126,
      "count": 3092,
      "max": [
        0.03483281284570694,
        0.0675940066576004,
        0.00400000112131238
      ],
      "min": [
        -0.00647613313049078,
        -0.09244401007890701,
        -0.0040000006556510925
      ],
      "type": "VEC3"
    },
    {
      "bufferView": 2,
      "byteOffset": 37104,
      "componentType": 5126,
      "count": 3092,
      "max": [
        1.0,
        0.9993895888328552,
        1.0
      ],
      "min": [
        -1.0,
        -0.9996421337127686,
        -1.0
      ],
      "type": "VEC3"
    },
    {
      "bufferView": 1,
      "componentType": 5126,
      "count": 3092,
      "max": [
        0.625,
        1.0000001192092896
      ],
      "min": [
        0.0,
        0.0
      ],
      "type": "VEC2"
    },
    {
      "bufferView": 0,
      "componentType": 5125,
      "count": 4638,
      "type": "SCALAR"
    },
    {
      "bufferView": 2,
      "byteOffset": 74208,
      "componentType": 5126,
      "count": 592,
      "max": [
        0.0030938403215259314,
        0.003093109466135502,
        0.004527886398136616
      ],
      "min": [
        -0.003090464510023594,
        -0.0030911918729543686,
        -0.003306665923446417
      ],
      "type": "VEC3"
    },
    {
      "bufferView": 2,
      "byteOffset": 81312,
      "componentType": 5126,
      "count": 592,
      "max": [
        0.9807851910591125,
        0.9948124289512634,
        1.0
      ],
      "min": [
        -0.9807852506637573,
        -0.9948120713233948,
        -1.0
      ],
      "type": "VEC3"
    },
    {
      "bufferView": 1,
      "byteOffset": 24736,
      "componentType": 5126,
      "count": 592,
      "max": [
        1.0,
        1.0
      ],
      "min": [
        0.0,
        0.0
      ],
      "type": "VEC2"
    },
    {
      "bufferView": 0,
      "byteOffset": 18552,
      "componentType": 5125,
      "count": 900,
      "type": "SCALAR"
    },
    {
      "bufferView": 2,
      "byteOffset": 88416,
      "componentType": 5126,
      "count": 3092,
      "max": [
        0.00647613313049078,
        0.0675940066576004,
        0.00400000112131238
      ],
      "min": [
        -0.03483281284570694,
        -0.09244401007890701,
        -0.00400000112131238
      ],
      "type": "VEC3"
    },
    {
      "bufferView": 2,
      "byteOffset": 125520,
      "componentType": 5126,
      "count": 3092,
      "max": [
        1.0,
        0.9993898868560791,
        1.0
      ],
      "min": [
        -1.0,
        -0.9996421337127686,
        -1.0
      ],
      "type": "VEC3"
    },
    {
      "bufferView": 1,
      "byteOffset": 29472,
      "componentType": 5126,
      "count": 3092,
      "max": [
        0.625,
        1.0000001192092896
      ],
      "min": [
        0.0,
        0.0
      ],
      "type": "VEC2"
    },
    {
      "bufferView": 0,
      "byteOffset": 22152,
      "componentType": 5125,
      "count": 4638,
      "type": "SCALAR"
    },
    {
      "bufferView": 3,
      "componentType": 5126,
      "count": 41,
      "max": [
        2.5
      ],
      "min": [
        0.0416666679084301
      ],
      "type": "SCALAR"
    },
    {
      "bufferView": 4,
      "componentType": 5126,
      "count": 41,
      "max": [
        0.0,
        0.0,
        0.258819043636322,
        1.0
      ],
      "min": [
        0.0,
        0.0,
        -0.0,
        0.9659258127212524
      ],
      "type": "VEC4"
    },
    {
      "bufferView": 3,
      "byteOffset": 164,
      "componentType": 5126,
      "count": 41,
      "max": [
        2.5
      ],
      "min": [
        0.0416666679084301
      ],
      "type": "SCALAR"
    },
    {
      "bufferView": 4,
      "byteOffset": 656,
      "componentType": 5126,
      "count": 41,
      "max": [
        0.0,
        0.0,
        -0.0,
        1.0
      ],
      "min": [
        0.0,
        0.0,
        -0.258819043636322,
        0.9659258127212524
      ],
      "type": "VEC4"
    }
  ],
  "animations": [
    {
      "channels": [
        {
          "sampler": 0,
          "target": {
            "node": 3,
            "path": "rotation"
          }
        },
        {
          "sampler": 1,
          "target": {
            "node": 7,
            "path": "rotation"
          }
        }
      ],
      "name": "Animation",
      "samplers": [
        {
          "input": 12,
          "interpolation": "LINEAR",
          "output": 13
        },
        {
          "input": 14,
          "interpolation": "LINEAR",
          "output": 15
        }
      ]
    }
  ],
  "asset": {
    "extras": {
      "author": "game_travel (https://sketchfab.com/game_travel)",
      "license": "CC-BY-4.0 (http://creativecommons.org/licenses/by/4.0/)",
      "source": "https://sketchfab.com/3d-models/scissors-low-poly-0d7a67de409d4e21a49dd8ab06df5b27",
      "title": "Scissors (Low Poly)"
    },
    "generator": "Sketchfab-0.6.0",
    "version": "2.0"
  },
  "bufferViews": [
    {
      "buffer": 0,
      "byteLength": 40704,
      "name": "floatBufferViews",
      "target": 34963
    },
    {
      "buffer": 0,
      "byteLength": 54208,
      "byteOffset": 40704,
      "byteStride": 8,
      "name": "floatBufferViews",
      "target": 34962
    },
    {
      "buffer": 0,
      "byteLength": 162624,
      "byteOffset": 94912,
      "byteStride": 12,
      "name": "floatBufferViews",
      "target": 34962
    },
    {
      "buffer": 0,
      "byteLength": 328,
      "byteOffset": 257536,
      "name": "floatBufferViews"
    },
    {
      "buffer": 0,
      "byteLength": 1312,
      "byteOffset": 257864,
      "byteStride": 16,
      "name": "floatBufferViews"
    }
  ],
  "buffers": [
    {
      "byteLength": 259176,
      "uri": "scene.bin"
    }
  ],
  "materials": [
    {
      "doubleSided": true,
      "name": "White",
      "pbrMetallicRoughness": {
        "metallicFactor": 0.0,
        "roughnessFactor": 0.4
      }
    }
  ],
  "meshes": [
    {
      "name": "Object_0",
      "primitives": [
        {
          "attributes": {
            "NORMAL": 1,
            "POSITION": 0,
            "TEXCOORD_0": 2
          },
          "indices": 3,
          "material": 0,
          "mode": 4
        }
      ]
    },
    {
      "name": "Object_1",
      "primitives": [
        {
          "attributes": {
            "NORMAL": 5,
            "POSITION": 4,
            "TEXCOORD_0": 6
          },
          "indices": 7,
          "material": 0,
          "mode": 4
        }
      ]
    },
    {
      "name": "Object_2",
      "primitives": [
        {
          "attributes": {
            "NORMAL": 9,
            "POSITION": 8,
            "TEXCOORD_0": 10
          },
          "indices": 11,
          "material": 0,
          "mode": 4
        }
      ]
    }
  ],
  "nodes": [
    {
      "children": [
        1
      ],
      "matrix": [
        1.0,
        0.0,
        0.0,
        0.0,
        0.0,
        2.220446049250313e-16,
        -1.0,
        0.0,
        0.0,
        1.0,
        2.220446049250313e-16,
        0.0,
        0.0,
        0.0,
        0.0,
        1.0
      ],
      "name": "Sketchfab_model"
    },
    {
      "children": [
        2
      ],
      "name": "root"
    },
    {
      "children": [
        3,
        5,
        7,
        9
      ],
      "matrix": [
        1.0,
        0.0,
        0.0,
        0.0,
        0.0,
        2.220446049250313e-16,
        1.0,
        0.0,
        0.0,
        -1.0,
        2.220446049250313e-16,
        0.0,
        0.0,
        0.0,
        0.0,
        1.0
      ],
      "name": "GLTF_SceneRootNode"
    },
    {
      "children": [
        4
      ],
      "name": "Obj_Scissors_2"
    },
    {
      "mesh": 0,
      "name": "Object_4"
    },
    {
      "children": [
        6
      ],
      "name": "Obj_Screw_3"
    },
    {
      "mesh": 1,
      "name": "Object_6"
    },
    {
      "children": [
        8
      ],
      "name": "Obj_Scissors.001_4"
    },
    {
      "mesh": 2,
      "name": "Object_8"
    },
    {
      "name": "Gp_Scissors_5"
    }
  ],
  "scene": 0,
  "scenes": [
    {
      "name": "Sketchfab_Scene",
      "nodes": [
        0
      ]
    }
  ]
}
